# xmcd CD database file generated by Grip 3.3.0
# 
# Track frame offsets:
#       150
#       10097
#       31867
#       43526
#       60299
#       77470
#       86089
#       104447
#       123694
#       133394
#       160436
#       175615
#       188227
#       212437
#       263519
#       279505
#       301324
#       321841
# 
# Disc length: 4552 seconds
# 
# Revision: 3
# Processed by: cddbd v1.5.1PL0 Copyright (c) Steve Scherf et al.
# Submitted via: Grip 3.3.0
# 
DISCID=eb11c612
DTITLE=ミッシャ・マイスキー - バッハ_無伴奏チェロ組曲全
DTITLE=曲_Disc1_BWV 1007-1012
DYEAR=1999
DGENRE=Other
TTITLE0=無伴奏チェロ組曲第1番_G-dur BWV 1007 Prelude
TTITLE1=無伴奏チェロ組曲第1番_G-dur BWV 1007 Allemande
TTITLE2=無伴奏チェロ組曲第1番_G-dur BWV 1007 Courante
TTITLE3=無伴奏チェロ組曲第1番_G-dur BWV 1007 Sarabande
TTITLE4=無伴奏チェロ組曲第1番_G-dur BWV 1007 Menuet I/II
TTITLE5=無伴奏チェロ組曲第1番_G-dur BWV 1007 Gigue
TTITLE6=無伴奏チェロ組曲第2番_d-moll BWV 1008 Prelude
TTITLE7=無伴奏チェロ組曲第2番_d-moll BWV 1008 Allemande
TTITLE8=無伴奏チェロ組曲第2番_d-moll BWV 1008 Courante
TTITLE9=無伴奏チェロ組曲第2番_d-moll BWV 1008 Sarabande
TTITLE10=無伴奏チェロ組曲第2番_d-moll BWV 1008 Menuet I/II
TTITLE11=無伴奏チェロ組曲第2番_d-moll BWV 1008 Gigue
TTITLE12=無伴奏チェロ組曲第3番_D-dur BWV 1012 Prelude
TTITLE13=無伴奏チェロ組曲第3番_D-durBWV 1012 Allemande
TTITLE14=無伴奏チェロ組曲第3番_D-durBWV 1012 Courante
TTITLE15=無伴奏チェロ組曲第3番_D-dur BWV 1012 Sarabande
TTITLE16=無伴奏チェロ組曲第3番_D-dur BWV 1012 Gavotte I/II
TTITLE17=無伴奏チェロ組曲第3番_D-dur BWV 1012 Gigue
EXTD=YEAR: 1999
EXTT0=
EXTT1=
EXTT2=
EXTT3=
EXTT4=
EXTT5=
EXTT6=
EXTT7=
EXTT8=
EXTT9=
EXTT10=
EXTT11=
EXTT12=
EXTT13=
EXTT14=
EXTT15=
EXTT16=
EXTT17=
PLAYORDER=
